<svg width="14.869141" height="14.240723" viewBox="0 0 14.8691 14.2407" fill="none" xmlns="http://www.w3.org/2000/svg" xmlns:xlink="http://www.w3.org/1999/xlink">
	<desc>
			Created with Pixso.
	</desc>
	<defs/>
	<path d="M6.48 0.69L5.41 3.98C5.28 4.39 4.89 4.67 4.46 4.67L1 4.67C0.03 4.67 -0.38 5.91 0.41 6.48L3.21 8.51C3.56 8.77 3.71 9.22 3.57 9.63L2.5 12.92C2.2 13.84 3.26 14.61 4.04 14.04L6.84 12.01C7.19 11.75 7.67 11.75 8.02 12.01L10.82 14.04C11.6 14.61 12.66 13.84 12.36 12.92L11.29 9.63C11.15 9.22 11.3 8.77 11.65 8.51L14.45 6.48C15.23 5.91 14.83 4.67 13.86 4.67L10.4 4.67C9.97 4.67 9.58 4.39 9.45 3.98L8.38 0.69C8.08 -0.24 6.78 -0.24 6.48 0.69Z" fill="#F14F4F" fill-opacity="1.000000" fill-rule="evenodd"/>
</svg>
